<svg width="20" height="20" viewBox="0 0 20 20" fill="none" xmlns="http://www.w3.org/2000/svg"><path d="M8.12045 13.663C8.12045 13.663 7.97008 13.663 8.12045 13.663C7.97008 13.663 7.97008 13.663 7.8197 13.663C6.61669 13.663 5.41369 13.663 4.0603 13.663C4.0603 11.1105 4.0603 8.55807 4.0603 6.15576C5.26331 6.15576 6.46632 6.15576 7.66932 6.15576C7.66932 6.15576 7.66932 6.15576 7.8197 6.15576H7.97008C8.27083 6.15576 8.4212 6.15576 8.72196 6.30591C9.02271 6.30591 9.17308 6.45605 9.47384 6.6062C9.77459 6.75634 9.92496 7.05663 10.0753 7.35692C10.2257 7.80735 10.2257 8.10764 10.0753 8.55807C9.92496 9.0085 9.62421 9.30879 9.17308 9.60908C9.17308 9.60908 9.17308 9.60908 9.02271 9.60908C9.02271 9.60908 9.02271 9.60908 9.17308 9.60908C9.77459 9.75923 10.0753 10.0595 10.3761 10.6601C10.5265 11.1105 10.5265 11.4108 10.5265 11.7111C10.5265 12.3117 10.2257 12.7621 9.77459 13.2125C9.32346 13.5128 8.87233 13.663 8.4212 13.663C8.27083 13.663 8.27083 13.663 8.12045 13.663ZM5.86481 10.3598C5.86481 11.1105 5.86481 11.7111 5.86481 12.4618C6.46632 12.4618 7.06782 12.4618 7.66932 12.4618C7.8197 12.4618 7.97008 12.4618 8.27083 12.4618C8.57158 12.3117 8.72196 12.0114 8.87233 11.7111C8.87233 11.561 8.87233 11.2607 8.87233 11.1105C8.87233 10.8102 8.72196 10.6601 8.57158 10.5099C8.27083 10.3598 7.97008 10.3598 7.66932 10.3598C7.06782 10.3598 6.46632 10.3598 5.86481 10.3598ZM5.86481 7.50706C5.86481 8.10764 5.86481 8.70822 5.86481 9.30879C5.86481 9.30879 5.86481 9.30879 6.01519 9.30879C6.46632 9.30879 7.06782 9.30879 7.51895 9.30879C7.66932 9.30879 7.66932 9.30879 7.8197 9.30879C7.97008 9.30879 8.12045 9.30879 8.27083 9.15865C8.57158 9.0085 8.57158 8.70822 8.57158 8.40793C8.57158 7.95749 8.4212 7.65721 7.97008 7.50706C7.8197 7.50706 7.51895 7.50706 7.36857 7.50706C6.91745 7.50706 6.46632 7.50706 5.86481 7.50706Z" fill="#E3B07E"/><path d="M13.6844 13.663C13.534 13.663 13.3837 13.663 13.2333 13.663C13.0829 13.663 12.9325 13.663 12.7822 13.663C12.0303 13.5129 11.4288 13.0624 11.128 12.3117C10.8273 11.561 10.6769 10.8103 10.9777 9.9094C11.2784 9.00853 11.8799 8.40795 12.7822 8.10766C13.0829 7.95752 13.534 7.95752 13.9852 7.95752C14.5867 8.10766 15.0378 8.25781 15.4889 8.70824C15.9401 9.15867 16.0904 9.75925 16.2408 10.3598C16.2408 10.51 16.2408 10.51 16.2408 10.6601C16.2408 10.8103 16.2408 11.1106 16.2408 11.2607C14.8874 11.2607 13.6844 11.2607 12.331 11.2607C12.331 11.4108 12.331 11.561 12.331 11.7111C12.331 12.0114 12.4814 12.3117 12.7822 12.4619C13.2333 12.7621 13.8348 12.7621 14.2859 12.4619C14.4363 12.3117 14.7371 12.1616 14.7371 12.0114C14.7371 12.0114 14.7371 12.0114 14.8874 12.0114C15.3386 12.0114 15.6393 12.0114 16.0904 12.0114C15.9401 12.4619 15.7897 12.7621 15.4889 13.0624C15.0378 13.5129 14.5867 13.663 13.9852 13.8131C13.9852 13.663 13.8348 13.663 13.6844 13.663ZM12.1807 10.2097C12.9325 10.2097 13.8348 10.2097 14.5867 10.2097C14.5867 9.9094 14.4363 9.75925 14.2859 9.45896C14.2859 9.30882 14.1355 9.15867 13.8348 9.15867C13.6844 9.15867 13.534 9.15867 13.3837 9.15867C12.7822 9.15867 12.331 9.60911 12.1807 10.2097Z" fill="#E3B07E"/><path d="M12.0303 7.35692C12.0303 7.05663 12.0303 6.75634 12.0303 6.45605C13.0829 6.45605 14.1355 6.45605 15.0378 6.45605C15.0378 6.75634 15.0378 7.05663 15.0378 7.35692C13.9852 7.35692 13.0829 7.35692 12.0303 7.35692Z" fill="#E3B07E"/><path d="M9.92488 19.0681C14.991 19.0681 19.0978 14.9676 19.0978 9.9093C19.0978 4.85103 14.991 0.750488 9.92488 0.750488C4.85881 0.750488 0.751953 4.85103 0.751953 9.9093C0.751953 14.9676 4.85881 19.0681 9.92488 19.0681Z" stroke="#E3B07E" stroke-miterlimit="10"/><defs><clipPath id="clip0_0_58"><path fill="#fff" d="M0 0H20V19.969H0z"/></clipPath></defs></svg>