<svg width="20" height="21" viewBox="0 0 20 21" fill="none" xmlns="http://www.w3.org/2000/svg"><path d="M10.6766 8.92646H12.4812L12.3308 10.8783H10.6766V16.734H8.27063V10.8783H7.06763V8.92646H8.27063V7.72531C8.27063 6.82444 8.42101 6.22386 8.87214 5.77343C9.32327 5.323 9.92477 5.17285 10.9774 5.17285H12.6315V6.97458H11.4285C11.2782 6.97458 11.1278 6.97458 10.9774 6.97458C10.827 6.97458 10.827 7.12473 10.6766 7.12473C10.6766 7.27487 10.5263 7.27487 10.5263 7.42502C10.5263 7.57516 10.5263 7.57516 10.5263 7.72531V8.92646H10.6766Z" fill="#E3B07E"/><path d="M9.92488 20.0373C14.991 20.0373 19.0978 15.9368 19.0978 10.8785C19.0978 5.82026 14.991 1.71973 9.92488 1.71973C4.85881 1.71973 0.751953 5.82026 0.751953 10.8785C0.751953 15.9368 4.85881 20.0373 9.92488 20.0373Z" stroke="#E3B07E" stroke-miterlimit="10"/><defs><clipPath id="clip0_0_68"><path fill="#fff" transform="translate(0 .97)" d="M0 0H20V19.969H0z"/></clipPath></defs></svg>