<svg width="20" height="21" viewBox="0 0 20 21" fill="none" xmlns="http://www.w3.org/2000/svg"><path d="M9.92488 20.0066C14.991 20.0066 19.0978 15.906 19.0978 10.8478C19.0978 5.7895 14.991 1.68896 9.92488 1.68896C4.85881 1.68896 0.751953 5.7895 0.751953 10.8478C0.751953 15.906 4.85881 20.0066 9.92488 20.0066Z" stroke="#E3B07E" stroke-miterlimit="10"/><path d="M10.0753 14.4511C8.12046 14.4511 6.6167 12.9496 6.6167 10.9978C6.6167 9.04588 8.12046 7.54443 10.0753 7.54443C12.0302 7.54443 13.534 9.04588 13.534 10.9978C13.6844 12.7995 12.0302 14.4511 10.0753 14.4511Z" stroke="#E3B07E" stroke-miterlimit="10"/><path d="M14.2859 6.19311C14.2859 6.04297 14.4363 6.04297 14.4363 6.04297C14.5866 6.04297 14.5866 6.19311 14.5866 6.19311C14.5866 6.34326 14.4363 6.34326 14.4363 6.34326C14.4363 6.34326 14.2859 6.34326 14.2859 6.19311Z" stroke="#E3B07E" stroke-miterlimit="10"/><defs><clipPath id="clip0_0_72"><path fill="#fff" transform="translate(0 .938)" d="M0 0H20V19.969H0z"/></clipPath></defs></svg>