<svg width="28" height="34" viewBox="0 0 28 34" fill="none" xmlns="http://www.w3.org/2000/svg"><path d="M18.4 14.3C9.8 12.8 7.7 12.5 7.6 9.2V6.4H7.8H11.2C13.4 6.4 15 6.6 16 7.1C16.1 7.2 16.2 7.2 16.4 7.3C16.5 7.4 16.6 7.5 16.7 7.6C17.2 8.2 17.4 9 17.4 10.1C17.4 10.6 17.4 10.9 17.3 11.2C17.3 11.4 17.4 11.5 17.5 11.6C19.2 11.8 21.7 12.3 23.7 13.4C23.8 13.5 24 13.4 24.1 13.3C24.9 12.2 25.2 10.9 25.2 9C25.2 6.8 24.4 4.8 22.9 3.1C22.8 2.9 22.6 2.8 22.4 2.6C22.3 2.5 22.2 2.4 22 2.3C22 2.2 21.9 2.1 21.7 2C21.6 1.9 21.5 1.8 21.3 1.8C21.3 1.8 21.2 1.8 21.2 1.7C21.1 1.6 21 1.6 20.8 1.5C20.7 1.5 20.7 1.4 20.6 1.4C20.5 1.3 20.4 1.3 20.3 1.2C20.2 1.2 20.1 1.1 20 1.1C19.9 1.1 19.8 1 19.7 1C19.5 0.9 19.3 0.9 19.1 0.8C18.9 0.7 18.7 0.7 18.5 0.6C18.4 0.6 18.2 0.5 18.1 0.5C18 0.5 17.9 0.5 17.8 0.4C17.6 0.4 17.4 0.3 17.2 0.3H17.1C16.9 0.3 16.7 0.2 16.4 0.2C15.4 0.1 14.4 0 13.3 0H13.2H11.1H4.8H0.6C0.3 0 0 0.3 0 0.6V3.7V6.4V10.4C0.5 17.7 9.6 19.4 12.3 19.9C14.2 20.2 16.4 20.5 17.6 21C18.7 21.5 19.3 22.4 19.3 23.9C19.2 25.3 18.7 26.3 17.7 26.8C16.6 27.3 15 27.6 12.8 27.6H7.6V22.2C7.6 22.1 7.5 21.9 7.4 21.9C3.8 21 1.7 19.3 0.5 18C0.4 17.7 0 17.8 0 18.1V34H14.9C19.6 34 22.9 32.9 24.7 30.8C26.3 29 27.1 26.9 27.1 24.5C27.2 21.1 26.5 15.8 18.4 14.3Z" fill="#E3B07E"/><defs><clipPath id="clip0_0_55"><path fill="#fff" d="M0 0H27.2V34H0z"/></clipPath></defs></svg>