<svg width="166" height="105" viewBox="0 0 166 105" fill="none" xmlns="http://www.w3.org/2000/svg"><path d="M165.119 105L82.6096 0L0 105L10.8538 103.095C12.3613 102.794 35.5764 98.5817 60.701 82.0344C67.6354 84.5415 74.9718 85.745 82.5091 85.745C90.0465 85.745 97.4834 84.4413 104.418 82.0344C129.542 98.682 152.657 102.894 154.265 103.095L165.119 105ZM120.799 62.3782C116.277 66.5903 111.151 69.8997 105.624 72.4069C99.8953 68.2951 94.0665 63.5817 88.4385 58.0659C93.363 52.4499 98.0864 46.1318 102.408 39.1117L120.799 62.3782ZM82.6096 13.7393L96.8804 31.8911C92.559 39.3123 87.735 45.8309 82.6096 51.7478C77.4842 45.9312 72.6603 39.3123 68.3389 31.8911L82.6096 13.7393ZM76.6802 57.9656C71.0523 63.5817 65.2234 68.2951 59.495 72.3066C53.9676 69.7994 48.9427 66.49 44.3198 62.3782L62.711 39.0115C67.0324 46.0315 71.7558 52.3496 76.6802 57.9656ZM21.4061 91.4613L38.9934 69.0974C42.7118 72.5072 46.8322 75.4155 51.1537 77.7221C39.7973 84.6418 29.1445 88.9541 21.4061 91.4613ZM82.6096 72.5072C82.6096 72.5072 74.3688 75.1146 69.5449 75.7163C73.9668 72.3066 78.2882 68.4957 82.6096 64.2837C86.8306 68.4957 91.2525 72.3066 95.6744 75.7163C90.8505 75.2149 82.6096 72.5072 82.6096 72.5072ZM113.865 77.7221C118.186 75.3152 122.306 72.4069 126.025 68.9971L143.713 91.5616C136.075 88.9542 125.321 84.7421 113.865 77.7221Z" fill="url(#paint0_linear_0_36)"/><defs><linearGradient id="paint0_linear_0_36" x1="0" y1="52.488" x2="165.139" y2="52.488" gradientUnits="userSpaceOnUse"><stop offset=".02" stop-color="#CB9866"/><stop offset=".296" stop-color="#FDCC9A"/><stop offset=".5" stop-color="#CB9866"/><stop offset=".721" stop-color="#FDCC9A"/><stop offset="1" stop-color="#CB9866"/></linearGradient></defs></svg>