<svg width="320" height="73" viewBox="0 0 320 73" fill="none" xmlns="http://www.w3.org/2000/svg"><path id="testtt" d="M30.2632 15.2864H38.705V50.5872H30.4642L30.0622 45.4726C28.0522 49.5844 22.5248 51.5901 18.6054 51.6904C8.15356 51.7907 0.314697 45.2721 0.314697 32.9368C0.314697 20.7019 8.45505 14.3838 18.8064 14.4841C23.5298 14.4841 28.0522 16.6904 30.0622 20.2004L30.2632 15.2864ZM9.05805 32.9368C9.05805 39.656 13.681 43.6675 19.5099 43.6675C33.2781 43.6675 33.2781 22.2061 19.5099 22.2061C13.681 22.2061 9.05805 26.2176 9.05805 32.9368Z" fill="#fff"/><path d="M70.0606 50.5873V31.7335C70.0606 27.1203 67.6486 22.808 62.8247 22.808C58.1013 22.808 55.2873 27.02 55.2873 31.7335V50.6876H46.5439V15.1862H54.6843L55.2873 19.4985C57.1968 15.8882 61.2167 14.5845 64.6337 14.5845C68.8546 14.5845 73.0755 16.2893 75.0855 21.2034C78.2009 16.1891 82.3214 14.785 86.9443 14.785C96.9941 14.785 101.919 20.9025 101.919 31.5329V50.5873H93.2757V31.5329C93.2757 26.9197 91.3662 22.9083 86.6428 22.9083C81.9194 22.9083 78.9044 27.02 78.9044 31.6332V50.5873H70.0606Z" fill="#fff"/><path d="M117.395 0.544434V20.1003C119.506 16.49 125.335 14.4843 129.053 14.4843C139.404 14.4843 147.042 20.8023 147.042 32.937C147.042 44.5702 139.203 51.3897 128.752 51.3897C124.43 51.3897 120.008 49.9857 117.295 45.7737L116.692 50.6877H108.451V0.544434H117.395ZM117.998 32.937C117.998 39.3553 122.722 43.3668 128.249 43.3668C133.877 43.3668 138.299 39.1547 138.299 32.937C138.299 26.5186 133.877 22.6075 128.249 22.6075C122.722 22.6075 117.998 26.7192 117.998 32.937Z" fill="#fff"/><path d="M161.414 36.0461C162.017 40.4587 165.836 43.5675 171.966 43.5675C175.182 43.5675 179.403 42.3641 181.413 40.2581L187.041 45.7738C183.322 49.685 177.192 51.4902 171.765 51.4902C159.504 51.4902 152.268 43.9687 152.268 32.6363C152.268 21.9057 159.605 14.1836 171.061 14.1836C182.92 14.1836 190.357 21.5045 188.95 36.0461H161.414ZM180.709 28.8254C180.106 24.2122 176.589 21.9057 171.463 21.9057C166.74 21.9057 162.821 24.2122 161.514 28.8254H180.709Z" fill="#fff"/><path d="M203.322 15.2864L203.925 19.3981C206.638 14.9855 210.356 14.3838 213.874 14.3838C217.492 14.3838 221.009 15.7878 223.019 17.7935L219.1 25.4153C217.291 23.911 215.683 23.1087 212.768 23.1087C208.145 23.1087 203.925 25.5156 203.925 32.0342V50.6875H195.181V15.2864H203.322Z" fill="#fff"/><path d="M249.149 15.186V58.209C249.149 66.9339 245.33 72.6502 237.39 72.6502C234.777 72.6502 232.064 71.9482 229.552 70.2434L232.667 63.4239C234.174 64.1259 235.581 64.527 236.888 64.4267C239.802 64.3265 240.405 62.0199 240.405 58.209V15.186H249.149ZM239.601 5.25768C239.601 12.0772 249.953 12.0772 249.953 5.25768C249.953 -1.5618 239.601 -1.5618 239.601 5.25768Z" fill="#fff"/><path d="M263.52 36.0461C264.123 40.4587 267.942 43.5675 274.072 43.5675C277.288 43.5675 281.509 42.3641 283.519 40.2581L289.147 45.7738C285.429 49.685 279.298 51.4902 273.871 51.4902C261.61 51.4902 254.375 43.9687 254.375 32.6363C254.375 21.9057 261.711 14.1836 273.168 14.1836C285.027 14.1836 292.463 21.5045 291.056 36.0461H263.52ZM282.816 28.8254C282.213 24.2122 278.695 21.9057 273.57 21.9057C268.846 21.9057 264.927 24.2122 263.62 28.8254H282.816Z" fill="#fff"/><path d="M308.845 5.3584V15.3871H318.593V22.9085H308.744V38.1521C308.744 41.5618 310.654 43.1664 313.367 43.1664C314.774 43.1664 316.282 42.7653 317.588 42.0633L320 49.4845C317.488 50.4874 315.377 50.8885 312.764 50.9888C305.026 51.2896 300.001 46.877 300.001 38.0518V22.9085H293.368V15.3871H300.001V6.26098L308.845 5.3584Z" fill="#fff"/></svg>